<?xml version="1.0" encoding="utf-8"?>
<!-- Generator: Adobe Illustrator 26.0.3, SVG Export Plug-In . SVG Version: 6.00 Build 0)  -->
<svg version="1.1" id="Layer_1" xmlns="http://www.w3.org/2000/svg" xmlns:xlink="http://www.w3.org/1999/xlink" x="0px" y="0px"
	 viewBox="0 0 1000 1000" style="enable-background:new 0 0 1000 1000;" xml:space="preserve">
<style type="text/css">
	.st0{fill:#FFFFFF;}
</style>
<rect width="1000" height="1000"/>
<path class="st0" d="M287.69,383.22v-26.63c0-2.07-0.29-3.65-0.29-3.65s1.87,0.29,3.66,0.29h20.1c15.3,0,24.27,2.39,24.27,16.29
	c0,9-5.59,17.09-23.66,17.09h-20.71c-1.79,0-3.61,0.22-3.61,0.22S287.69,385.1,287.69,383.22 M287.69,444.43v-30.85
	c0-2.06-0.25-3.59-0.25-3.59s1.81,0.26,3.6,0.26h17.01c13.55,0,30.12,0,30.12,18.74c0,13.88-11.86,18.78-27.85,18.78h-19.29
	c-1.82,0-3.55,0.26-3.55,0.26S287.69,446.21,287.69,444.43 M238.97,336.65L238.96,465c0,4.18,0.24,5.65-2.72,7.49
	c-2.87,1.79-5.84,2.1-10.59,2.9h-0.08c-0.49,0.14-0.4,1.92,0.08,1.92H329.5c43.79,0,62.21-17.37,62.21-44.49
	c0-20.03-9.35-32.26-27.82-36.88c-0.32-0.09-0.33-0.48,0-0.6c11.77-3.67,22.59-12.21,22.59-33.05c0-28.34-19.11-37.87-60.8-37.87
	l-99.99-0.02c-0.48,0-0.58,1.81-0.1,1.9c0.05,0,0.09,0.01,0.09,0.01c4.77,0.82,7.72,1.13,10.6,2.91
	C239.22,331.02,238.97,332.48,238.97,336.65"/>
<path class="st0" d="M762.12,336.65c0-4.17-0.2-5.63,2.71-7.44c2.93-1.78,5.87-2.1,10.6-2.91c0,0,0.04-0.01,0.1-0.01
	c0.48-0.1,0.4-1.88-0.1-1.88l-76.59-0.02c-0.45,0-0.57,1.81-0.04,1.9l0.04,0.01c4.85,0.6,7.1,1.13,9.98,2.91
	c2.98,1.81,2.71,3.27,2.71,7.46v77.13c0,17.57-10.06,31.11-30.05,31.11c-20.03,0-30.12-13.54-30.12-31.11v-77.12
	c0-4.17-0.18-5.66,2.73-7.47c2.87-1.78,5.29-2.21,9.99-2.91c0,0,0.03-0.01,0.06-0.01c0.51-0.1,0.4-1.88-0.06-1.88h-72.3
	c-0.54,0-0.42,1.79,0,1.88c0.06,0,0.14,0.01,0.14,0.01c2.64,0.16,4.46,0.34,6.05,1.73c2.4,2.01,2.82,4.46,2.82,8.62l-0.04,75.85
	c0,36.54,20,67.59,80.74,67.59c60.65,0,80.65-31.05,80.65-67.59V336.65z"/>
<path class="st0" d="M530.05,477.3c0.46,0,0.58-1.78,0.12-1.9c-0.04-0.01-0.1-0.01-0.1-0.01c-4.74-0.81-7.7-1.11-10.58-2.9
	c-2.96-1.84-2.72-3.3-2.72-7.47v-48.7l52.96-78.66c2.88-4.3,4.78-6.54,7.15-8.53c0.4-0.35,1.4-1,1.96-1.39
	c2.18-1.09,3.06-1.38,5.72-1.45c0,0,0.04,0,0.08-0.01c0.51-0.03,0.65-1.87,0.09-1.87l-71.4-0.01c-0.6,0-0.5,1.87,0.04,1.9
	c0.01,0,0.07,0.03,0.07,0.03c3.45,0,7.73,0.03,7.04,5.04c-0.38,4.78-20.99,34.58-28.32,45.9c-1.04,1.63-1.87,3.27-2.23,5.32
	c-0.26-2.03-1.52-4.07-2.36-5.29c-10.24-15.26-27.71-39.9-28.22-45.96c-0.41-5.15,3.59-5.04,7.06-5.04c0,0,0.01-0.01,0.09-0.01
	c0.48-0.01,0.65-1.88,0.09-1.88l-75.01,0.01c-0.43,0-0.4,1.74,0.03,1.87c0.04,0.01,0.1,0.01,0.1,0.01c3.2,0.36,4.93,0.12,8.7,1.96
	c0.43,0.21,1.49,0.91,1.89,1.26c2.39,2.02,3.84,3.85,6.75,8.15l52.88,78.3V465c0,4.18,0.27,5.65-2.69,7.49
	c-2.88,1.79-5.84,2.1-10.58,2.9c0,0-0.06,0-0.09,0.01c-0.51,0.12-0.42,1.9,0.09,1.9H530.05z"/>
<path class="st0" d="M380.77,628.01c-10.21,10.27-21.49,14.69-40.49,14.69c-6.54,0-17.07-0.26-22.56-0.26
	c-5.5,0-12.31,0.26-18.84,0.26c-0.45,0-0.6-1.75,0.15-1.94c5.77-0.54,8.31-1.45,10.1-2.48c1.94-1.07,3.1-3.57,3.1-32.79v-21.68
	c0-29.23-1.15-31.9-3.1-32.8c-1.79-1.04-4.32-1.9-10.1-2.52c-0.75-0.14-0.6-1.9-0.15-1.9c6.53,0,13.34,0.29,18.84,0.29
	c5.49,0,19.13-0.29,25.82-0.29c29.83,0,51.33,19.99,51.33,46.88C394.88,606.37,389.68,618.97,380.77,628.01 M338.95,551.48
	c-8.9,0-12.62,1.2-13.66,2.49c-0.88,1.2-2.21,7.74-2.21,29.38v22.14c0,18.99,1.33,26.42,3.25,28.49c2.68,2.78,6.08,3.82,13.8,3.82
	c29.07,0,42.43-13.76,42.43-41.65C382.56,573.45,367.27,551.48,338.95,551.48"/>
<path class="st0" d="M478.4,642.7c-0.43,0-0.6-1.75,0-1.94c4.62-0.42,7.43-1.3,7.43-3.54c0-2.51-1.91-9.21-10.39-30.54h-30.71
	c-6.99,19.11-8.6,26.38-8.6,29.54c0,2.63,2.08,4.01,8.45,4.54c0.6,0.19,0.45,1.94,0,1.94h-30.41c-0.45,0-0.74-1.75,0-1.94
	c4.43-0.42,7.11-1.3,9.34-2.79c1.49-1.2,4.14-3.26,14.84-32.47l7.88-21.68c4.59-12.43,9.49-25.38,13.2-36.94
	c0.29-1.04,4.74-1.04,5.05,0c4.47,12.88,8.32,23.43,13.49,36.94l8.46,21.68c11.56,29.21,13.52,31.44,15.58,32.79
	c2.51,1.61,4.77,2.06,8.91,2.48c0.58,0.19,0.46,1.94,0,1.94H478.4z M460,564.83l-13.04,35.74h26.24L460,564.83z"/>
<path class="st0" d="M599.63,642.7c-0.6,0-0.6-1.75,0.17-1.94c5.78-0.54,8.3-1.46,10.07-2.49c1.77-1.06,3.1-3.57,3.1-32.79v-9.22
	h-56.06v9.22c0,29.22,1.32,31.73,3.1,32.79c1.76,1.03,4.3,1.94,10.09,2.49c0.75,0.19,0.75,1.94,0.32,1.94h-37.69
	c-0.48,0-0.6-1.75,0.13-1.94c5.79-0.54,8.32-1.46,10.1-2.49c1.91-1.06,3.12-3.57,3.12-32.79v-21.67c0-29.24-1.21-31.9-3.12-32.8
	c-1.78-1.05-4.32-1.9-10.1-2.52c-0.73-0.14-0.61-1.9-0.13-1.9h37.69c0.43,0,0.43,1.76-0.32,1.9c-5.79,0.62-8.32,1.47-10.09,2.52
	c-1.77,0.9-3.1,3.57-3.1,32.8v6.93h56.06v-6.93c0-29.24-1.33-31.9-3.1-32.8c-1.77-1.05-4.29-1.9-10.07-2.52
	c-0.76-0.14-0.76-1.9-0.17-1.9h37.55c0.59,0,0.59,1.76-0.12,1.9c-5.83,0.62-8.32,1.47-10.12,2.52c-1.77,0.9-3.1,3.57-3.1,32.8v21.67
	c0,29.22,1.33,31.73,3.1,32.79c1.81,1.03,4.29,1.94,10.12,2.49c0.71,0.19,0.71,1.94,0.12,1.94H599.63z"/>
<path class="st0" d="M716.72,643.62c-28.21,0-48.39-20.94-48.39-47.81c0-25.5,20.18-50.12,50.48-50.12
	c28.29,0,48.33,20.89,48.33,47.79C767.14,618.97,747.11,643.62,716.72,643.62 M715.96,551.17c-26.55,0-35.3,21.24-35.3,40.37
	c0,24.21,15.26,46.58,39.01,46.58c26.41,0,35.12-21.21,35.12-40.37C754.78,573.59,739.71,551.17,715.96,551.17"/>
<path class="st0" d="M225.39,510.62c-0.68,0-1.24,0.57-1.24,1.26c0,0.68,0.57,1.25,1.24,1.25H758.9c0.68,0,1.28-0.57,1.28-1.25
	c0-0.69-0.6-1.26-1.28-1.26H225.39z"/>
<path class="st0" d="M225.29,642.7c-0.46,0-0.46-1.81,0.15-1.94c5.78-0.57,9.65-1.49,11.43-2.54c1.8-1.01,3.11-3.54,3.11-32.74
	v-21.65c0-29.24-1.31-31.9-3.11-32.8c-1.77-1.05-5.65-1.9-11.43-2.52c-0.61-0.15-0.61-1.9-0.15-1.9h40.06c0.44,0,0.57,1.75-0.18,1.9
	c-5.76,0.62-9.47,1.47-11.25,2.52c-1.94,0.9-3.26,3.57-3.26,32.8v21.65c0,29.2,1.32,31.73,3.26,32.74
	c1.78,1.06,5.49,1.98,11.25,2.54c0.75,0.13,0.62,1.94,0.18,1.94H225.29z"/>
</svg>
